# xmcd
#
# Track frame offsets: 
#        150
#        14763
#        29924
#        47544
#        63485
#        79355
#        94366
#        111097
#        127131
#        145734
#        165785
#        182063
#        197588
#        211085
#
# Disc length: 3009 seconds
#
# Revision: 0
# Processed by: cddbd v1.5.2PL0 Copyright (c) Steve Scherf et al.
# Submitted via: ExactAudioCopy v1.3
#
DISCID=c80bbf0e
DTITLE=五木ひろし - 70years 70songs Disc 2 1961-1973 FKCX-5090-4
DYEAR=1900
DGENRE=JPop
TTITLE0=上を向いて歩こう
TTITLE1=王将
TTITLE2=いつでも夢を
TTITLE3=東京五輪音頭
TTITLE4=ああ上野駅
TTITLE5=君といつまでも
TTITLE6=星影のワルツ
TTITLE7=夜霧よ今夜も有難う
TTITLE8=港町ブルース
TTITLE9=傷だらけの人生
TTITLE10=よこはま・たそがれ(ニューバージョン)
TTITLE11=神田川
TTITLE12=夜空(ニューバージョン)
TTITLE13=心もよう
EXTD=
EXTT0=
EXTT1=
EXTT2=
EXTT3=
EXTT4=
EXTT5=
EXTT6=
EXTT7=
EXTT8=
EXTT9=
EXTT10=
EXTT11=
EXTT12=
EXTT13=
PLAYORDER=
